<svg xmlns="http://www.w3.org/2000/svg" width="1200" height="660" viewBox="0 0 1200 660" role="img" aria-labelledby="title"><title id="title">Shelvin Joel. Full-stack developer in Uganda. Interfaces, backend systems and the web.</title><defs><style>text{font-family:Arial,Helvetica,sans-serif}.mono{font-family:Consolas,monospace;letter-spacing:2px}.spin{transform-origin:900px 302px;animation:rotate 48s linear infinite}.drift{animation:fade 5s ease-in-out infinite}@keyframes rotate{to{transform:rotate(360deg)}}@keyframes fade{50%{opacity:.35}}@media(prefers-reduced-motion:reduce){.spin,.drift{animation:none}}</style><linearGradient id="metal" x1="0" y1="0" x2="1" y2="1"><stop stop-color="#f1f0df"/><stop offset=".4" stop-color="#9d9f83"/><stop offset=".55" stop-color="#e6ff75"/><stop offset="1" stop-color="#434c2d"/></linearGradient><radialGradient id="haze"><stop stop-color="#dfff79" stop-opacity=".12"/><stop offset="1" stop-color="#dfff79" stop-opacity="0"/></radialGradient></defs>
<rect width="1200" height="660" rx="18" fill="#11140f"/><path d="M0 72H1200M0 587H1200" stroke="#30332b"/>
<rect x="32" y="24" width="28" height="28" rx="7" fill="#dfff79"/><text x="38" y="44" font-size="15" fill="#11140f" font-weight="700">sj</text>
<text x="76" y="43" font-size="14" fill="#ecebdc" class="mono">SHELVIN JOEL</text><text x="636" y="43" font-size="12" fill="#a5ab97" class="mono">DEVELOPER / SELECTED WORK</text>
<circle cx="1037" cy="37" r="4" fill="#dfff79"/><text x="1050" y="43" font-size="12" fill="#dfff79" class="mono">UG · UTC+3</text>
<text x="42" y="127" font-size="12" fill="#abb19d" class="mono">INDEPENDENT DEVELOPER · KATONGOLE2005</text>
<text x="34" y="249" font-size="113" fill="#ecebdc" font-weight="800" letter-spacing="-7">SHELVIN</text>
<text x="34" y="352" font-size="113" fill="#ecebdc" font-weight="800" letter-spacing="-7">JOEL.</text>
<text x="42" y="404" font-size="27" fill="#dfff79" >I build for the web.</text>
<text x="42" y="449" font-size="19" fill="#a5ab97" >The interface. The backend. The parts</text>
<text x="42" y="477" font-size="19" fill="#a5ab97" >that make the whole thing work.</text>
<rect x="42" y="516" width="183" height="37" rx="18.5" fill="#dfff79"/>
<text x="60" y="540" font-size="12" fill="#11140f" font-weight="700">FULL-STACK DEVELOPER</text>
<text x="247" y="540" font-size="12" fill="#abb19d" class="mono">BASED IN UGANDA</text>
<circle cx="900" cy="302" r="280" fill="url(#haze)"/>
<path d="M1149 302L1159 302" stroke="#656b53" stroke-width="2"/><path d="M1153.0334533153034 324.1375586579052L1158.014426805762 324.57333737164345" stroke="#656b53" stroke-width="1"/><path d="M1150.1411692651009 346.1066371274003L1155.0652080301618 346.97487801573493" stroke="#656b53" stroke-width="1"/><path d="M1145.3451598774234 367.7400374560403L1150.1747890088686 369.0341326815529" stroke="#656b53" stroke-width="1"/><path d="M1138.6819256796207 388.87311640471984L1143.3803887835502 390.5832171213482" stroke="#656b53" stroke-width="1"/><path d="M1130.202177907309 409.3450384821376L1134.7337168424924 411.45812979084116" stroke="#656b53" stroke-width="1"/><path d="M1115.6403255423252 426.5L1124.3005795801696 431.5" stroke="#656b53" stroke-width="2"/><path d="M1108.064619249404 447.68841483316567L1112.160379470849 450.5562970149209" stroke="#656b53" stroke-width="1"/><path d="M1094.5752885522204 465.268052860381L1098.4055107678153 468.48199090881366" stroke="#656b53" stroke-width="1"/><path d="M1079.6051224213832 481.60512242138304L1083.1406563273158 485.1406563273158" stroke="#656b53" stroke-width="1"/><path d="M1063.268052860381 496.5752885522204L1066.4819909088137 500.4055107678153" stroke="#656b53" stroke-width="1"/><path d="M1045.6884148331658 510.0646192494039L1048.556297014921 514.1603794708489" stroke="#656b53" stroke-width="1"/><path d="M1024.5 517.6403255423252L1029.5 526.3005795801696" stroke="#656b53" stroke-width="2"/><path d="M1007.3450384821376 532.2021779073091L1009.4581297908412 536.7337168424923" stroke="#656b53" stroke-width="1"/><path d="M986.8731164047199 540.6819256796207L988.5832171213482 545.3803887835502" stroke="#656b53" stroke-width="1"/><path d="M965.7400374560403 547.3451598774234L967.0341326815529 552.1747890088686" stroke="#656b53" stroke-width="1"/><path d="M944.1066371274003 552.1411692651009L944.9748780157349 557.0652080301619" stroke="#656b53" stroke-width="1"/><path d="M922.1375586579052 555.0334533153034L922.5733373716434 560.014426805762" stroke="#656b53" stroke-width="1"/><path d="M900 551L900 561" stroke="#656b53" stroke-width="2"/><path d="M877.8624413420948 555.0334533153034L877.4266626283566 560.014426805762" stroke="#656b53" stroke-width="1"/><path d="M855.8933628725997 552.1411692651009L855.0251219842651 557.0652080301619" stroke="#656b53" stroke-width="1"/><path d="M834.2599625439597 547.3451598774234L832.9658673184471 552.1747890088686" stroke="#656b53" stroke-width="1"/><path d="M813.1268835952802 540.6819256796207L811.4167828786518 545.3803887835503" stroke="#656b53" stroke-width="1"/><path d="M792.6549615178624 532.2021779073091L790.5418702091589 536.7337168424924" stroke="#656b53" stroke-width="1"/><path d="M775.5 517.6403255423252L770.5 526.3005795801696" stroke="#656b53" stroke-width="2"/><path d="M754.3115851668342 510.0646192494039L751.4437029850791 514.1603794708489" stroke="#656b53" stroke-width="1"/><path d="M736.731947139619 496.5752885522204L733.5180090911863 500.4055107678153" stroke="#656b53" stroke-width="1"/><path d="M720.394877578617 481.60512242138304L716.8593436726842 485.1406563273158" stroke="#656b53" stroke-width="1"/><path d="M705.4247114477796 465.26805286038103L701.5944892321847 468.4819909088137" stroke="#656b53" stroke-width="1"/><path d="M691.9353807505961 447.68841483316567L687.839620529151 450.5562970149209" stroke="#656b53" stroke-width="1"/><path d="M684.3596744576748 426.5000000000001L675.6994204198304 431.5000000000001" stroke="#656b53" stroke-width="2"/><path d="M669.7978220926909 409.3450384821377L665.2662831575077 411.45812979084116" stroke="#656b53" stroke-width="1"/><path d="M661.3180743203793 388.8731164047199L656.6196112164498 390.58321712134824" stroke="#656b53" stroke-width="1"/><path d="M654.6548401225766 367.7400374560402L649.8252109911314 369.0341326815528" stroke="#656b53" stroke-width="1"/><path d="M649.8588307348991 346.1066371274003L644.9347919698381 346.97487801573493" stroke="#656b53" stroke-width="1"/><path d="M646.9665466846966 324.1375586579052L641.985573194238 324.57333737164345" stroke="#656b53" stroke-width="1"/><path d="M651 302.00000000000006L641 302.00000000000006" stroke="#656b53" stroke-width="2"/><path d="M646.9665466846966 279.8624413420949L641.985573194238 279.4266626283566" stroke="#656b53" stroke-width="1"/><path d="M649.8588307348991 257.89336287259977L644.9347919698381 257.0251219842651" stroke="#656b53" stroke-width="1"/><path d="M654.6548401225766 236.25996254395983L649.8252109911313 234.96586731844724" stroke="#656b53" stroke-width="1"/><path d="M661.3180743203793 215.12688359528016L656.6196112164497 213.41678287865182" stroke="#656b53" stroke-width="1"/><path d="M669.7978220926908 194.6549615178625L665.2662831575076 192.541870209159" stroke="#656b53" stroke-width="1"/><path d="M684.3596744576748 177.49999999999997L675.6994204198304 172.49999999999997" stroke="#656b53" stroke-width="2"/><path d="M691.9353807505961 156.31158516683436L687.839620529151 153.44370298507914" stroke="#656b53" stroke-width="1"/><path d="M705.4247114477795 138.7319471396191L701.5944892321846 135.51800909118643" stroke="#656b53" stroke-width="1"/><path d="M720.3948775786168 122.39487757861696L716.8593436726842 118.85934367268422" stroke="#656b53" stroke-width="1"/><path d="M736.731947139619 107.4247114477796L733.5180090911863 103.59448923218471" stroke="#656b53" stroke-width="1"/><path d="M754.3115851668344 93.93538075059601L751.4437029850792 89.83962052915103" stroke="#656b53" stroke-width="1"/><path d="M775.4999999999999 86.35967445767486L770.4999999999999 77.69942041983046" stroke="#656b53" stroke-width="2"/><path d="M792.6549615178623 71.79782209269098L790.5418702091587 67.26628315750773" stroke="#656b53" stroke-width="1"/><path d="M813.1268835952802 63.31807432037925L811.4167828786518 58.61961121644973" stroke="#656b53" stroke-width="1"/><path d="M834.2599625439598 56.654840122576644L832.9658673184472 51.825210991131314" stroke="#656b53" stroke-width="1"/><path d="M855.8933628725997 51.85883073489916L855.0251219842651 46.93479196983813" stroke="#656b53" stroke-width="1"/><path d="M877.8624413420948 48.966546684696624L877.4266626283566 43.98557319423793" stroke="#656b53" stroke-width="1"/><path d="M900 53L900 43" stroke="#656b53" stroke-width="2"/><path d="M922.1375586579051 48.966546684696624L922.5733373716434 43.98557319423793" stroke="#656b53" stroke-width="1"/><path d="M944.1066371274002 51.85883073489913L944.9748780157348 46.9347919698381" stroke="#656b53" stroke-width="1"/><path d="M965.7400374560401 56.654840122576616L967.0341326815528 51.825210991131286" stroke="#656b53" stroke-width="1"/><path d="M986.8731164047199 63.31807432037928L988.5832171213483 58.619611216449755" stroke="#656b53" stroke-width="1"/><path d="M1007.3450384821375 71.79782209269084L1009.458129790841 67.26628315750759" stroke="#656b53" stroke-width="1"/><path d="M1024.4999999999998 86.35967445767469L1029.4999999999998 77.69942041983029" stroke="#656b53" stroke-width="2"/><path d="M1045.6884148331658 93.9353807505961L1048.5562970149208 89.83962052915112" stroke="#656b53" stroke-width="1"/><path d="M1063.268052860381 107.42471144777954L1066.4819909088137 103.59448923218466" stroke="#656b53" stroke-width="1"/><path d="M1079.605122421383 122.3948775786169L1083.1406563273158 118.85934367268416" stroke="#656b53" stroke-width="1"/><path d="M1094.5752885522204 138.73194713961894L1098.4055107678153 135.51800909118626" stroke="#656b53" stroke-width="1"/><path d="M1108.064619249404 156.3115851668342L1112.1603794708487 153.44370298507897" stroke="#656b53" stroke-width="1"/><path d="M1115.6403255423252 177.50000000000009L1124.3005795801696 172.50000000000009" stroke="#656b53" stroke-width="2"/><path d="M1130.202177907309 194.6549615178622L1134.7337168424922 192.5418702091587" stroke="#656b53" stroke-width="1"/><path d="M1138.6819256796207 215.12688359528016L1143.3803887835502 213.41678287865182" stroke="#656b53" stroke-width="1"/><path d="M1145.3451598774234 236.25996254395974L1150.1747890088686 234.96586731844712" stroke="#656b53" stroke-width="1"/><path d="M1150.1411692651009 257.8933628725997L1155.0652080301618 257.025121984265" stroke="#656b53" stroke-width="1"/><path d="M1153.0334533153034 279.86244134209477L1158.014426805762 279.4266626283565" stroke="#656b53" stroke-width="1"/><g class="spin"><ellipse cx="900" cy="302" rx="210" ry="32" transform="rotate(0 900 302)" stroke="url(#metal)" stroke-width="1.5" fill="none" opacity="0.35"/><ellipse cx="900" cy="302" rx="210" ry="45" transform="rotate(15 900 302)" stroke="url(#metal)" stroke-width="0.7" fill="none" opacity="0.39499999999999996"/><ellipse cx="900" cy="302" rx="210" ry="58" transform="rotate(30 900 302)" stroke="url(#metal)" stroke-width="0.7" fill="none" opacity="0.43999999999999995"/><ellipse cx="900" cy="302" rx="210" ry="71" transform="rotate(45 900 302)" stroke="url(#metal)" stroke-width="1.5" fill="none" opacity="0.485"/><ellipse cx="900" cy="302" rx="210" ry="84" transform="rotate(60 900 302)" stroke="url(#metal)" stroke-width="0.7" fill="none" opacity="0.53"/><ellipse cx="900" cy="302" rx="210" ry="97" transform="rotate(75 900 302)" stroke="url(#metal)" stroke-width="0.7" fill="none" opacity="0.575"/><ellipse cx="900" cy="302" rx="210" ry="110" transform="rotate(90 900 302)" stroke="url(#metal)" stroke-width="1.5" fill="none" opacity="0.62"/><ellipse cx="900" cy="302" rx="210" ry="123" transform="rotate(105 900 302)" stroke="url(#metal)" stroke-width="0.7" fill="none" opacity="0.665"/><ellipse cx="900" cy="302" rx="210" ry="136" transform="rotate(120 900 302)" stroke="url(#metal)" stroke-width="0.7" fill="none" opacity="0.71"/><ellipse cx="900" cy="302" rx="210" ry="149" transform="rotate(135 900 302)" stroke="url(#metal)" stroke-width="1.5" fill="none" opacity="0.7549999999999999"/><ellipse cx="900" cy="302" rx="210" ry="162" transform="rotate(150 900 302)" stroke="url(#metal)" stroke-width="0.7" fill="none" opacity="0.7999999999999999"/><ellipse cx="900" cy="302" rx="210" ry="175" transform="rotate(165 900 302)" stroke="url(#metal)" stroke-width="0.7" fill="none" opacity="0.845"/><circle cx="1098" cy="373" r="6" fill="#dfff79"/></g>
<circle cx="900" cy="302" r="72" fill="#11140f" stroke="#646d49"/>
<text x="864" y="316" font-size="41" fill="#dfff79" font-weight="700" letter-spacing="-4">sj/</text>
<path d="M642 302H680M1120 302H1158M900 32V57M900 547V572" stroke="#dfff79"/>
<text x="754" y="569" font-size="10" fill="#889279" class="mono">FORM / FUNCTION / ITERATION</text>
<text x="42" y="629" font-size="12" fill="#c7ccba" class="mono">01 — WEB APPLICATIONS</text>
<text x="443" y="629" font-size="12" fill="#c7ccba" class="mono">02 — BACKEND SYSTEMS</text>
<text x="838" y="629" font-size="12" fill="#c7ccba" class="mono">03 — ALWAYS LEARNING</text></svg>
